#!OML:ASF F:\VICON\USERDATA\INSTALL\rory3\rory3.ASF
:FULLY-SPECIFIED
:DEGREES
382
root 0.325614 17.8229 41.6239 -4.25931 -3.85244 1.58001
lowerback 10.8999 1.42112 -1.30031
upperback 0.713167 1.74479 0.300381
thorax -5.41667 0.892979 0.777963
lowerneck -16.4466 -2.86413 -2.58598
upperneck 21.8035 -3.73735 1.74542
head 9.70667 -1.75038 0.547399
rclavicle 1.32502e-014 -8.15017e-015
rhumerus -28.8731 -16.6549 -80.9991
rradius 27.0583
rwrist 3.90384
rhand -16.971 18.7729
rfingers 7.12502
rthumb 9.26332 -11.0036
lclavicle 1.32502e-014 -8.15017e-015
lhumerus -29.6876 -0.160223 83.443
lradius 21.1636
lwrist 5.07625
lhand -28.5851 19.8768
lfingers 7.12502
lthumb -1.95098 49.8477
rfemur -23.2578 -2.81933 19.7046
rtibia 74.7792
rfoot -5.47024 -5.43394
rtoes 7.95816
lfemur -5.74901 -3.08738 -27.4684
ltibia 28.3535
lfoot -12.5024 4.0065
ltoes 5.20231
383
root 0.322459 17.809 41.7999 -4.28804 -3.48938 1.92658
lowerback 10.4597 1.26775 -1.70548
upperback 0.979222 1.49824 0.247468
thorax -4.89435 0.775919 1.00109
lowerneck -16.412 -2.92123 -2.57669
upperneck 21.5551 -3.80098 1.68837
head 9.6127 -1.78691 0.519019
rclavicle -1.46604e-014 1.21259e-014
rhumerus -28.6282 -16.6167 -81.0801
rradius 27.0088
rwrist 3.3776
rhand -16.858 18.7957
rfingers 7.12502
rthumb 9.37235 -10.9759
lclavicle -1.46604e-014 1.21259e-014
lhumerus -28.8007 -0.320395 83.3779
lradius 21.1056
lwrist 3.02678
lhand -28.7914 19.939
lfingers 7.12502
lthumb -2.15024 49.9079
rfemur -24.205 -3.06602 19.4111
rtibia 73.9491
rfoot -6.84766 -5.4577
rtoes 6.39618
lfemur -5.24643 -3.10357 -27.9578
ltibia 28.6756
lfoot -13.0983 4.07303
ltoes 5.2823
384
root 0.305566 17.7951 41.9517 -3.99831 -3.54519 1.196
lowerback 10.8457 1.16462 -1.34473
upperback 0.684408 1.41536 0.584024
thorax -5.41667 0.735544 1.15141
lowerneck -16.4342 -2.82111 -2.55545
upperneck 21.6307 -3.67348 1.7081
head 9.64035 -1.72352 0.538601
rclavicle 9.75287e-015 1.70955e-014
rhumerus -29.0182 -16.3271 -80.9957
rradius 27.2092
rwrist 3.15444
rhand -16.673 18.7069
rfingers 7.12502
rthumb 9.5509 -11.0566
lclavicle 9.75287e-015 1.70955e-014
lhumerus -28.5025 -0.642887 83.3995
lradius 21.303
lwrist 2.45233
lhand -27.7104 20.9021
lfingers 7.12502
lthumb -1.10625 50.879
rfemur -25.6256 -2.68062 20.6021
rtibia 72.8896
rfoot -7.57571 -5.93714
rtoes 5.10977
lfemur -5.1034 -3.04059 -27.1262
ltibia 28.87
lfoot -13.4511 4.15274
ltoes 5.25804
385
root 0.302465 17.781 42.1019 -3.87124 -3.25959 0.973177
lowerback 11.0511 1.01768 -1.23275
upperback 0.584094 1.24058 0.739596
thorax -5.63287 0.650477 1.2744
lowerneck -16.0629 -2.74027 -2.58459
upperneck 21.2123 -3.56266 1.74751
head 9.4231 -1.67429 0.577768
rclavicle 4.32357e-015 1.35174e-014
rhumerus -29.4361 -16.037 -80.913
rradius 27.7772
rwrist 2.84596
rhand -16.4593 18.6551
rfingers 7.12502
rthumb 9.75707 -11.0988
lclavicle 4.32357e-015 1.35174e-014
lhumerus -28.0187 -1.37155 83.6687
lradius 21.5361
lwrist 3.14897
lhand -28.1175 20.5851
lfingers 7.12502
lthumb -1.49943 50.5596
rfemur -26.7413 -2.78641 21.0463
rtibia 71.6712
rfoot -8.33613 -6.27479
rtoes 3.98591
lfemur -4.60432 -3.23054 -26.9602
ltibia 29.0503
lfoot -14.1399 4.36427
ltoes 5.27181
386
root 0.301237 17.765 42.2692 -3.9237 -2.82092 1.13771
lowerback 10.8861 0.884815 -1.3579
upperback 0.642971 1.04892 0.713114
thorax -5.47391 0.557777 1.34984
lowerneck -15.3108 -2.85667 -2.73209
upperneck 20.676 -3.73119 1.90149
head 9.10799 -1.75541 0.644973
rclavicle -8.3738e-015 -9.14409e-015
rhumerus -29.8681 -15.8088 -80.9083
rradius 28.3071
rwrist 2.11605
rhand -16.5769 18.8159
rfingers 7.12502
rthumb 9.64362 -10.9433
lclavicle -8.3738e-015 -9.14409e-015
lhumerus -27.5651 -2.08913 83.7582
lradius 21.9765
lwrist 3.09569
lhand -28.9901 20.3945
lfingers 7.12502
lthumb -2.34219 50.3614
rfemur -27.4649 -3.11501 20.9614
rtibia 70.2922
rfoot -9.1602 -6.53877
rtoes 3.36822
lfemur -3.82615 -3.32415 -27.2585
ltibia 29.0625
lfoot -14.8601 4.62089
ltoes 4.04802
387
root 0.294005 17.7558 42.4371 -3.98527 -2.5302 1.45791
lowerback 11.0657 0.806261 -1.79944
upperback 0.962276 0.885734 0.6741
thorax -5.23927 0.482965 1.5834
lowerneck -16.5348 -2.84984 -2.43331
upperneck 21.009 -3.67782 1.49232
head 9.43384 -1.74134 0.444428
rclavicle 1.24116e-014 7.15625e-015
rhumerus -29.3736 -15.6636 -81.1107
rradius 28.4091
rwrist 1.82779
rhand -16.844 19.7921
rfingers 7.12502
rthumb 9.3859 -9.97892
lclavicle 1.24116e-014 7.15625e-015
lhumerus -26.2413 -3.1948 83.8816
lradius 22.1148
lwrist 3.26413
lhand -29.8736 20.492
lfingers 7.12502
lthumb -3.19541 50.4478
rfemur -28.1916 -3.25898 20.7513
rtibia 68.781
rfoot -9.86189 -6.96741
rtoes 3.40192
lfemur -3.02341 -3.30856 -27.6617
ltibia 28.7308
lfoot -15.1758 4.6612
ltoes 3.3184
388
root 0.293463 17.7446 42.608 -4.00571 -2.26683 1.94399
lowerback 11.3468 0.692479 -2.33353
upperback 0.810981 0.655082 0.567839
thorax -5.55077 0.385292 1.80734
lowerneck -16.0894 -2.7773 -2.57309
upperneck 20.5964 -3.63003 1.86131
head 9.21718 -1.69385 0.607958
rclavicle -1.0225e-014 -3.97569e-016
rhumerus -29.9224 -15.5993 -80.9656
rradius 28.5516
rwrist 2.09727
rhand -16.8053 22.0233
rfingers 7.12502
rthumb 9.4232 -7.746
lclavicle -1.0225e-014 -3.97569e-016
lhumerus -25.9647 -4.6132 84.1148
lradius 22.3214
lwrist 4.51029
lhand -29.244 21.4567
lfingers 7.12502
lthumb -2.58736 51.4208
rfemur -28.8838 -3.45591 20.2938
rtibia 67.1349
rfoot -10.4699 -7.39252
rtoes 3.68935
lfemur -2.15244 -3.23656 -28.2666
ltibia 28.2979
lfoot -15.451 4.59116
ltoes 2.67631
389
root 0.294328 17.7327 42.7777 -3.87513 -2.00653 2.16085
lowerback 11.3068 0.580385 -2.5366
upperback 0.687311 0.478771 0.540006
thorax -5.65159 0.305924 1.92105
lowerneck -15.7765 -2.63998 -2.31528
upperneck 20.6488 -3.43528 1.52159
head 9.16141 -1.62262 0.477466
rclavicle -7.72775e-015 -3.97569e-016
rhumerus -30.4453 -15.8986 -80.6603
rradius 28.6736
rwrist 2.64756
rhand -16.5049 23.1516
rfingers 7.12502
rthumb 9.71309 -6.60441
lclavicle -7.72775e-015 -3.97569e-016
lhumerus -25.6607 -5.33074 84.179
lradius 22.6108
lwrist 4.8402
lhand -27.6064 23.3258
lfingers 7.12502
lthumb -1.00575 53.3032
rfemur -29.5788 -3.68828 20.1459
rtibia 65.28
rfoot -10.8828 -7.82613
rtoes 3.33361
lfemur -1.53391 -3.10708 -28.5471
ltibia 27.9859
lfoot -15.826 4.49194
ltoes 2.42816
390
root 0.28385 17.7242 42.9307 -3.65088 -1.84549 1.95593
lowerback 11.2342 0.532244 -2.43512
upperback 0.831 0.438749 0.677183
thorax -5.4577 0.281343 2.01443
lowerneck -15.976 -2.55091 -2.40076
upperneck 20.2949 -3.30053 1.62429
head 9.07636 -1.55428 0.542601
rclavicle -6.48535e-015 1.27222e-014
rhumerus -30.1079 -16.3972 -80.4578
rradius 28.5951
rwrist 3.15503
rhand -16.1156 22.8483
rfingers 7.12502
rthumb 10.0886 -6.88987
lclavicle -6.48535e-015 1.27222e-014
lhumerus -24.4952 -4.997 83.8255
lradius 22.8972
lwrist 2.51443
lhand -24.7052 27.6467
lfingers 7.12502
lthumb 1.79629 57.6188
rfemur -30.3595 -3.57096 20.5985
rtibia 63.1907
rfoot -11.0911 -8.6389
rtoes 2.28707
lfemur -1.2513 -2.98342 -28.2854
ltibia 27.7631
lfoot -15.972 4.40201
ltoes 1.8358
391
root 0.267619 17.7236 43.08 -3.33563 -1.76979 1.56543
lowerback 11.0964 0.463873 -2.26415
upperback 0.973943 0.3842 0.870464
thorax -5.22761 0.24822 2.12927
lowerneck -17.0515 -2.81393 -2.50345
upperneck 20.879 -3.60968 1.56255
head 9.48527 -1.7037 0.482992
rclavicle -4.67144e-015 1.59028e-015
rhumerus -29.739 -16.1892 -80.61
rradius 28.7476
rwrist 2.96034
rhand -16.5896 23.5014
rfingers 7.12502
rthumb 9.63136 -6.25845
lclavicle -4.67144e-015 1.59028e-015
lhumerus -23.5383 -5.99568 84.0054
lradius 23.1602
lwrist 4.67529
lhand -26.0446 27.2712
lfingers 7.12502
lthumb 0.502699 57.2504
rfemur -31.1591 -3.14208 21.2521
rtibia 60.8493
rfoot -11.2222 -9.4638
rtoes 2.4406
lfemur -0.997984 -3.05248 -27.8103
ltibia 27.4422
lfoot -16.104 4.34383
ltoes 2.93183
392
root 0.25898 17.7284 43.2397 -3.15039 -1.71721 1.3873
lowerback 10.7598 0.383848 -2.22171
upperback 1.22182 0.296091 0.962788
thorax -4.77523 0.196299 2.21495
lowerneck -17.2697 -2.84362 -2.55364
upperneck 20.6598 -3.66937 1.74074
head 9.45477 -1.71403 0.542959
rclavicle -2.80783e-015 -7.15625e-015
rhumerus -29.4372 -15.983 -80.8624
rradius 28.9439
rwrist 2.81482
rhand -17.252 24.0234
rfingers 7.12502
rthumb 8.99222 -5.76497
lclavicle -2.80783e-015 -7.15625e-015
lhumerus -22.6607 -6.3404 83.8826
lradius 23.6325
lwrist 5.37597
lhand -26.0813 27.846
lfingers 7.12502
lthumb 0.467268 57.8253
rfemur -31.7083 -2.92062 21.6072
rtibia 58.3582
rfoot -11.1659 -10.0952
rtoes 1.71986
lfemur -0.309705 -2.95872 -27.6052
ltibia 26.7324
lfoot -16.076 4.1385
ltoes 3.84858
393
root 0.260024 17.7333 43.426 -3.07854 -1.41061 1.91313
lowerback 11.326 0.250134 -2.78211
upperback 0.670782 0.028265 0.880025
thorax -5.65642 0.0953369 2.48964
lowerneck -16.623 -2.6737 -2.8944
upperneck 20.8026 -3.46435 2.17148
head 9.39554 -1.60219 0.782396
rclavicle 8.49804e-015 -1.59028e-015
rhumerus -30.5064 -15.5539 -80.6117
rradius 28.9845
rwrist 2.6652
rhand -17.0931 23.5624
rfingers 7.12502
rthumb 9.14548 -6.21932
lclavicle 8.49804e-015 -1.59028e-015
lhumerus -23.3465 -6.62086 83.917
lradius 24.2808
lwrist 5.64904
lhand -26.8743 25.3028
lfingers 7.12502
lthumb -0.298731 55.2824
rfemur -31.9387 -3.17426 21.049
rtibia 55.7207
rfoot -10.8858 -10.4185
rtoes 0.171026
lfemur 0.611047 -2.75018 -28.2245
ltibia 26.1052
lfoot -16.3537 3.95677
ltoes 4.03539
